HIERARCHY
ROOT hip
{
  OFFSET 0 0 0
  CHANNELS 6 Xposition Yposition Zposition Zrotation Yrotation Xrotation
  JOINT abdomen
  {
    OFFSET 0 20.6881 -0.73152
    CHANNELS 3 Zrotation Xrotation Yrotation
    JOINT chest
    {
      OFFSET 0 11.7043 -0.48768
      CHANNELS 3 Zrotation Xrotation Yrotation
      JOINT neck
      {
        OFFSET 0 22.1894 -2.19456
        CHANNELS 3 Zrotation Xrotation Yrotation
        JOINT head
        {
          OFFSET -0.24384 7.07133 1.2192
          CHANNELS 3 Zrotation Xrotation Yrotation
          JOINT leftEye
          {
            OFFSET 4.14528 8.04674 8.04672
            CHANNELS 3 Zrotation Xrotation Yrotation
            End Site
            {
              OFFSET 1 0 0
            }
          }
          JOINT rightEye
          {
            OFFSET -3.6576 8.04674 8.04672
            CHANNELS 3 Zrotation Xrotation Yrotation
            End Site
            {
              OFFSET 1 0 0
            }
          }
        }
      }
      JOINT rCollar
      {
        OFFSET -2.68224 19.2634 -4.8768
        CHANNELS 3 Zrotation Xrotation Yrotation
        JOINT rShldr
        {
          OFFSET -8.77824 -1.95073 1.46304
          CHANNELS 3 Zrotation Xrotation Yrotation
          JOINT rForeArm
          {
            OFFSET -28.1742 -1.7115 0.48768
            CHANNELS 3 Zrotation Xrotation Yrotation
            JOINT rHand
            {
              OFFSET -22.5879 0.773209 7.07136
              CHANNELS 3 Zrotation Xrotation Yrotation
              JOINT rThumb1
              {
                OFFSET -1.2192 -0.487915 3.41376
                CHANNELS 3 Zrotation Xrotation Yrotation
                JOINT rThumb2
                {
                  OFFSET -3.37035 -0.52449 3.41376
                  CHANNELS 3 Zrotation Xrotation Yrotation
                  End Site
                  {
                    OFFSET -1.78271 -1.18214 1.43049
                  }
                }
              }
              JOINT rIndex1
              {
                OFFSET -7.75947 0.938293 5.60832
                CHANNELS 3 Zrotation Xrotation Yrotation
                JOINT rIndex2
                {
                  OFFSET -2.54057 -0.884171 1.56538
                  CHANNELS 3 Zrotation Xrotation Yrotation
                  End Site
                  {
                    OFFSET -1.62519 -0.234802 1.16502
                  }
                }
              }
              JOINT rMid1
              {
                OFFSET -8.24714 1.18213 3.41376
                CHANNELS 3 Zrotation Xrotation Yrotation
                JOINT rMid2
                {
                  OFFSET -3.10165 -0.590103 1.0647
                  CHANNELS 3 Zrotation Xrotation Yrotation
                  End Site
                  {
                    OFFSET -2.48547 -0.328903 0.83742
                  }
                }
              }
              JOINT rRing1
              {
                OFFSET -8.82822 0.546677 1.51678
                CHANNELS 3 Zrotation Xrotation Yrotation
                JOINT rRing2
                {
                  OFFSET -2.60934 -0.819778 -0.0198488
                  CHANNELS 3 Zrotation Xrotation Yrotation
                  End Site
                  {
                    OFFSET -2.33842 -0.294052 0.168128
                  }
                }
              }
              JOINT rPinky1
              {
                OFFSET -8.27202 -0.0477905 -0.4584
                CHANNELS 3 Zrotation Xrotation Yrotation
                JOINT rPinky2
                {
                  OFFSET -1.82734 -0.647385 -0.700984
                  CHANNELS 3 Zrotation Xrotation Yrotation
                  End Site
                  {
                    OFFSET -1.69225 -0.51767 -0.607171
                  }
                }
              }
            }
          }
        }
      }
      JOINT lCollar
      {
        OFFSET 2.68224 19.2634 -4.8768
        CHANNELS 3 Zrotation Xrotation Yrotation
        JOINT lShldr
        {
          OFFSET 8.77824 -1.95073 1.46304
          CHANNELS 3 Zrotation Xrotation Yrotation
          JOINT lForeArm
          {
            OFFSET 28.1742 -1.7115 0.48768
            CHANNELS 3 Zrotation Xrotation Yrotation
            JOINT lHand
            {
              OFFSET 22.5879 0.773209 7.07136
              CHANNELS 3 Zrotation Xrotation Yrotation
              JOINT lThumb1
              {
                OFFSET 1.2192 -0.487915 3.41376
                CHANNELS 3 Zrotation Xrotation Yrotation
                JOINT lThumb2
                {
                  OFFSET 3.37035 -0.52449 3.41376
                  CHANNELS 3 Zrotation Xrotation Yrotation
                  End Site
                  {
                    OFFSET 1.78271 -1.18214 1.43049
                  }
                }
              }
              JOINT lIndex1
              {
                OFFSET 7.75947 0.938293 5.60832
                CHANNELS 3 Zrotation Xrotation Yrotation
                JOINT lIndex2
                {
                  OFFSET 2.54057 -0.884171 1.56538
                  CHANNELS 3 Zrotation Xrotation Yrotation
                  End Site
                  {
                    OFFSET 1.62519 -0.234802 1.16502
                  }
                }
              }
              JOINT lMid1
              {
                OFFSET 8.24714 1.18213 3.41376
                CHANNELS 3 Zrotation Xrotation Yrotation
                JOINT lMid2
                {
                  OFFSET 3.10165 -0.590103 1.0647
                  CHANNELS 3 Zrotation Xrotation Yrotation
                  End Site
                  {
                    OFFSET 2.48547 -0.328903 0.83742
                  }
                }
              }
              JOINT lRing1
              {
                OFFSET 8.82822 0.546677 1.51678
                CHANNELS 3 Zrotation Xrotation Yrotation
                JOINT lRing2
                {
                  OFFSET 2.60934 -0.819778 -0.0198488
                  CHANNELS 3 Zrotation Xrotation Yrotation
                  End Site
                  {
                    OFFSET 2.33842 -0.294052 0.168128
                  }
                }
              }
              JOINT lPinky1
              {
                OFFSET 8.27202 -0.0477905 -0.4584
                CHANNELS 3 Zrotation Xrotation Yrotation
                JOINT lPinky2
                {
                  OFFSET 1.82734 -0.647385 -0.700984
                  CHANNELS 3 Zrotation Xrotation Yrotation
                  End Site
                  {
                    OFFSET 1.69225 -0.51767 -0.607171
                  }
                }
              }
            }
          }
        }
      }
    }
  }
  JOINT rButtock
  {
    OFFSET -8.77824 4.35084 1.2192
    CHANNELS 3 Zrotation Xrotation Yrotation
    JOINT rThigh
    {
      OFFSET 0 -1.70687 -2.19456
      CHANNELS 3 Zrotation Xrotation Yrotation
      JOINT rShin
      {
        OFFSET 0 -36.8199 0.73152
        CHANNELS 3 Zrotation Xrotation Yrotation
        JOINT rFoot
        {
          OFFSET 0.73152 -45.1104 -5.12064
          CHANNELS 3 Zrotation Xrotation Yrotation
          End Site
          {
            OFFSET -1.1221 -3.69964 12.103
          }
        }
      }
    }
  }
  JOINT lButtock
  {
    OFFSET 8.77824 4.35084 1.2192
    CHANNELS 3 Zrotation Xrotation Yrotation
    JOINT lThigh
    {
      OFFSET 0 -1.70687 -2.19456
      CHANNELS 3 Zrotation Xrotation Yrotation
      JOINT lShin
      {
        OFFSET 0 -36.8199 0.73152
        CHANNELS 3 Zrotation Xrotation Yrotation
        JOINT lFoot
        {
          OFFSET -0.73152 -45.1104 -5.12064
          CHANNELS 3 Zrotation Xrotation Yrotation
          End Site
          {
            OFFSET 1.1221 -3.69964 12.103
          }
        }
      }
    }
  }
}
MOTION
Frames:	4
Frame Time:	0.00833333
58.2928 82.692 20.7067 176.236 1.2015 -161.754 -3.99411 -14.1339 1.08635 3.53691 13.5673 -0.208036 0.806297 12.1246 -2.49468 3.71954 -4.83333 -2.30277 -0.0 0.0 0.0 -0.0 0.0 0.0 -8.21911e-14 -4.83444e-13 6.60959e-15 80.8813 16.8294 2.1773 -19.4302 -12.3116 37.3141 -0.0443413 -5.99893 -0.846219 3.29045e-09 -6.02526e-09 4.82096e-10 5.69541e-09 -1.04183e-08 8.5068e-10 3.29045e-09 -6.02526e-09 4.82089e-10 7.73091 5.47488 0.417314 3.29045e-09 -6.02526e-09 4.82093e-10 2.90554 0.965183 0.102902 3.29046e-09 -6.02526e-09 4.82092e-10 10.2786 0.731801 0.0259123 3.29045e-09 -6.02526e-09 4.82102e-10 2.22167 -0.733487 -0.20892 -8.21099e-14 -4.83444e-13 6.31141e-15 -77.0687 16.7662 0.720462 11.0056 -4.77525 -19.7012 0.021933 4.22401 -0.594735 3.11646e-09 -2.41663e-09 -5.79601e-09 5.35902e-09 -4.17914e-09 -1.00343e-08 3.11645e-09 -2.41664e-09 -5.796e-09 -7.73091 5.47488 -0.417314 3.11646e-09 -2.41664e-09 -5.79601e-09 -2.90554 0.965183 -0.102902 3.11645e-09 -2.41664e-09 -5.796e-09 -10.2786 0.731801 -0.0259123 3.11646e-09 -2.41664e-09 -5.796e-09 -2.22167 -0.733487 0.20892 -2.03217e-16 0.0 -3.88251e-19 6.34064 -27.5924 9.10511 0.113966 19.2404 1.31041 -3.55402 -17.8144 -8.81368 2.03217e-16 0.0 3.88251e-19 -1.08536 -89.0832 0.784711 7.56612 83.1647 -8.39155 2.20419 -8.65856 5.83018
58.2873 82.7068 20.3469 176.209 1.2345 -161.737 -4.18126 -14.042 1.11422 3.5011 13.574 -0.191501 0.721409 12.1397 -2.12253 3.7552 -4.88734 -2.59671 -0.0 0.0 0.0 -0.0 0.0 0.0 -6.60248e-14 -5.63505e-13 -1.37752e-15 80.8072 17.0914 2.37075 -19.4641 -12.3523 37.3945 -0.0439477 -5.97068 -0.842208 3.58472e-09 -6.99544e-09 3.77745e-10 6.20666e-09 -1.2098e-08 6.71699e-10 3.58472e-09 -6.99544e-09 3.77737e-10 7.73091 5.47488 0.417314 3.58471e-09 -6.99544e-09 3.77743e-10 2.90554 0.965183 0.102902 3.58472e-09 -6.99544e-09 3.77741e-10 10.2786 0.731801 0.0259123 3.58472e-09 -6.99544e-09 3.77751e-10 2.22167 -0.733487 -0.20892 -6.59881e-14 -5.63505e-13 -1.68035e-15 -77.0244 16.5018 0.70496 10.9593 -4.74505 -19.6131 0.0228166 4.30983 -0.606863 3.35591e-09 -2.846e-09 -6.7814e-09 5.7677e-09 -4.92197e-09 -1.17387e-08 3.35591e-09 -2.846e-09 -6.78139e-09 -7.73091 5.47488 -0.417314 3.35591e-09 -2.846e-09 -6.7814e-09 -2.90554 0.965183 -0.102902 3.35591e-09 -2.846e-09 -6.78139e-09 -10.2786 0.731801 -0.0259123 3.35592e-09 -2.846e-09 -6.78139e-09 -2.22167 -0.733487 0.20892 -2.03217e-16 0.0 -3.88251e-19 6.21345 -27.2788 9.10276 0.117625 19.1892 1.32608 -3.62359 -18.0044 -8.90608 2.03217e-16 0.0 3.88251e-19 -2.46684 -89.1007 -0.503542 6.27424 81.9648 -7.10107 2.1808 -8.54874 5.78716
58.2759 82.7232 19.9532 176.196 1.2589 -161.802 -4.33941 -13.9473 1.13329 3.45613 13.5791 -0.176253 0.616863 12.1767 -1.58995 3.74274 -4.93969 -3.04641 -0.0 0.0 0.0 -0.0 0.0 0.0 -3.05716e-14 -5.93571e-13 -1.35049e-14 80.7234 17.4061 2.54615 -19.4985 -12.3937 37.4768 -0.0441155 -5.98184 -0.843795 3.50192e-09 -7.3597e-09 1.59568e-10 6.06577e-09 -1.27307e-08 2.9386e-10 3.50192e-09 -7.3597e-09 1.59558e-10 7.73091 5.47488 0.417314 3.50192e-09 -7.3597e-09 1.59568e-10 2.90554 0.965183 0.102902 3.50192e-09 -7.3597e-09 1.59565e-10 10.2786 0.731801 0.0259123 3.50192e-09 -7.3597e-09 1.59574e-10 2.22167 -0.733487 -0.20892 -3.05877e-14 -5.93571e-13 -1.38155e-14 -76.9904 16.2048 0.688894 10.9128 -4.71484 -19.5247 0.0241915 4.4361 -0.624714 3.22307e-09 -3.00686e-09 -7.18253e-09 5.53537e-09 -5.20036e-09 -1.24312e-08 3.22306e-09 -3.00686e-09 -7.18251e-09 -7.73091 5.47488 -0.417314 3.22307e-09 -3.00686e-09 -7.18253e-09 -2.90554 0.965183 -0.102902 3.22306e-09 -3.00686e-09 -7.18252e-09 -10.2786 0.731801 -0.0259123 3.22307e-09 -3.00686e-09 -7.18252e-09 -2.22167 -0.733487 0.20892 -2.03217e-16 0.0 -3.88251e-19 6.1106 -26.9445 9.10577 0.120689 19.1332 1.3386 -3.69571 -18.2148 -8.99873 2.03217e-16 0.0 3.88251e-19 -3.97205 -89.0382 -1.93592 5.33958 80.786 -6.16556 2.14507 -8.42494 5.70945
58.2517 82.7281 19.5509 176.141 1.2877 -161.864 -4.47941 -13.8522 1.15227 3.41189 13.5882 -0.160986 0.511038 12.2153 -1.06441 3.72237 -4.98012 -3.50909 -0.0 0.0 0.0 -0.0 0.0 0.0 8.83697e-15 -5.75731e-13 -2.49552e-14 80.6416 17.7378 2.69487 -19.5395 -12.4433 37.5743 -0.0446469 -6.0184 -0.848989 3.13558e-09 -7.12074e-09 -6.62076e-11 5.43374e-09 -1.23198e-08 -9.85585e-11 3.13558e-09 -7.12073e-09 -6.62193e-11 7.73091 5.47488 0.417314 3.13557e-09 -7.12074e-09 -6.62061e-11 2.90554 0.965183 0.102902 3.13558e-09 -7.12074e-09 -6.62093e-11 10.2786 0.731801 0.0259123 3.13558e-09 -7.12073e-09 -6.62014e-11 2.22167 -0.733487 -0.20892 8.77468e-15 -5.75731e-13 -2.52674e-14 -76.9552 15.9086 0.666699 10.8673 -4.68536 -19.4382 0.0259031 4.58814 -0.646218 2.82504e-09 -2.90825e-09 -7.01059e-09 4.84757e-09 -5.02992e-09 -1.21319e-08 2.82503e-09 -2.90826e-09 -7.01057e-09 -7.73091 5.47488 -0.417314 2.82504e-09 -2.90826e-09 -7.01058e-09 -2.90554 0.965183 -0.102902 2.82503e-09 -2.90826e-09 -7.01058e-09 -10.2786 0.731801 -0.0259123 2.82504e-09 -2.90826e-09 -7.01058e-09 -2.22167 -0.733487 0.20892 -2.03217e-16 0.0 -3.88251e-19 6.01536 -26.617 9.08908 0.123444 19.0923 1.348 -3.76888 -18.4364 -9.08965 2.03217e-16 0.0 3.88251e-19 -5.77668 -88.9169 -3.69238 4.64144 79.6452 -5.46399 2.09279 -8.24301 5.5928
